<svg xmlns="http://www.w3.org/2000/svg" width="400" height="400"><path fill="#000001" d="M0 0h400v400H0z"/><path fill="none" stroke="#0b6cfb" stroke-linecap="round" stroke-miterlimit="10" stroke-width="6.8" d="m281.143 200 .033.812.099.814.164.818.228.824.292.833.354.844.415.855.473.87.529.886.583.903.633.923.682.943.727.965.768.988.805 1.011.84 1.036.869 1.062.895 1.087.916 1.113.933 1.14.946 1.165.953 1.19.957 1.217.956 1.241.95 1.265.938 1.287.923 1.308.904 1.329.879 1.347.85 1.364.816 1.379.779 1.391.737 1.402.692 1.41.642 1.417.59 1.42.533 1.42.474 1.418.41 1.414.347 1.406.278 1.395.21 1.382.137 1.366.064 1.347-.011 1.325-.086 1.3-.163 1.272-.24 1.242-.317 1.209-.394 1.173-.47 1.136-.547 1.095-.622 1.053-.696 1.008-.768.963-.839.914-.907.865-.974.814-1.039.763-1.1.71-1.157.656-1.214.603-1.266.549-1.314.495-1.36.442-1.403.388-1.44.336-1.474.285-1.505.234-1.53.186-1.555.14-1.572.093-1.586.05-1.597.01-1.604-.028-1.606-.064-1.606-.096-1.6-.126-1.593-.152-1.58-.176-1.565-.195-1.547-.211-1.526-.224-1.5-.232-1.475-.238-1.445-.238-1.413-.236-1.38-.229-1.343-.219-1.306-.204-1.268-.186-1.228-.165-1.188-.14-1.146-.11-1.104-.078-1.062-.043-1.02-.004-.978.037-.937.081-.896.129-.856.177-.818.23-.78.281-.744.337-.71.394-.678.45-.647.51-.619.567-.593.627-.569.686-.547.744-.529.803-.513.86-.499.918-.488.971-.48 1.025-.474 1.076-.472 1.126-.472 1.171-.474 1.216-.48 1.256-.486 1.293-.498 1.328-.51 1.358-.524 1.385-.541 1.408-.56 1.426-.581 1.44-.603 1.45-.627 1.456-.653 1.456-.68 1.453-.706 1.444-.735 1.43-.765 1.412-.794 1.39-.824 1.362-.854 1.33-.884 1.294-.913 1.252-.943 1.208-.972 1.157-.999 1.104-1.026 1.046-1.051.986-1.076.92-1.1.853-1.12.781-1.139.708-1.157.632-1.173.553-1.187.472-1.199.39-1.207.307-1.215.221-1.22.136-1.223.05-1.222-.036-1.22-.122-1.216-.208-1.21-.293-1.2-.377-1.189-.46-1.175-.54-1.16-.619-1.143-.696-1.123-.77-1.102-.841-1.08-.91-1.055-.976-1.03-1.036-1.004-1.095-.976-1.15-.948-1.2-.918-1.245-.889-1.287-.858-1.325-.83-1.357-.798-1.386-.769-1.409-.74-1.428-.711-1.442-.684-1.45-.656-1.457-.632-1.456-.606-1.451-.585-1.442-.563-1.43-.544-1.41-.527-1.389-.512-1.363-.5-1.332-.488-1.3-.48-1.262-.475-1.222-.472-1.179-.472-1.133-.473-1.084-.48-1.033-.486-.98-.497-.926-.51-.87-.526-.812-.545-.754-.565-.695-.589-.636-.615-.577-.642-.519-.673-.46-.705-.402-.738-.346-.775-.29-.811-.238-.85-.185-.89-.136-.93-.09-.972-.043-1.013-.003-1.055.037-1.098.073-1.139.106-1.18.135-1.222.16-1.262.184-1.3.202-1.338.216-1.374.228-1.408.235-1.44.238-1.47.238-1.497.234-1.521.225-1.544.213-1.563.198-1.578.18-1.59.155-1.6.13-1.605.102-1.606.07-1.605.033-1.598-.003-1.589-.044-1.574-.087-1.557-.131-1.535-.179-1.51-.226-1.479-.277-1.445-.328-1.409-.38-1.367-.433-1.322-.487-1.274-.54-1.222-.594-1.167-.648-1.11-.702-1.047-.754-.985-.806-.918-.857-.85-.907-.78-.954-.707-1.002-.634-1.045-.558-1.09-.483-1.128-.407-1.168-.329-1.203-.252-1.237-.175-1.268-.098-1.296-.023-1.32.052-1.344.126-1.363.198-1.38.267-1.393.336-1.405.4-1.412.465-1.418.523-1.42.581-1.42.634-1.417.684-1.412.73-1.403.773-1.394.811-1.38.845-1.367.875-1.35.9-1.331.92-1.312.936-1.291.948-1.268.955-1.245.957-1.22.955-1.195.947-1.17.935-1.143.92-1.117.898-1.092.874-1.065.844-1.04.811-1.016.774-.991.734-.969.69-.946.64-.926.592-.906.538-.889.482-.872.424-.858.364-.845.302-.835.238-.825.175-.82.109-.814.043-.812-.022-.811-.088-.814-.154-.817-.218-.824-.282-.831-.345-.842-.405-.853-.463-.868-.52-.883-.575-.9-.626-.92-.675-.94-.72-.96-.76-.985-.8-1.007-.835-1.033-.865-1.057-.89-1.083-.914-1.11-.93-1.134-.945-1.162-.952-1.187-.957-1.212-.956-1.237-.95-1.26-.941-1.284-.927-1.305-.906-1.326-.883-1.344-.855-1.362-.822-1.376-.786-1.39-.744-1.4-.7-1.41-.65-1.415-.598-1.42-.542-1.42-.483-1.418-.422-1.415-.356-1.407-.29-1.398-.22-1.384-.149-1.369-.075-1.35-.002-1.328.075-1.304.15-1.277.228-1.247.304-1.215.382-1.179.458-1.141.535-1.102.61-1.06.684-1.016.757-.97.828-.922.896-.872.964-.823 1.028-.77 1.09-.719 1.149-.665 1.205-.612 1.258-.557 1.307-.504 1.353-.45 1.396-.397 1.434-.344 1.47-.293 1.5-.242 1.526-.194 1.55-.146 1.57-.1 1.585-.058 1.595-.017 1.603.023 1.606.058 1.606.092 1.602.121 1.594.148 1.582.173 1.568.192 1.55.209 1.53.222 1.504.23 1.48.238 1.449.238 1.418.237 1.385.23 1.35.22 1.312.208 1.274.19 1.234.167 1.194.144 1.153.116 1.11.083 1.07.049 1.026.01.985-.03.943-.074.903-.121.862-.17.824-.22.786-.274.75-.328.715-.384.683-.442.652-.5.623-.557.597-.618.572-.676.551-.736.532-.794.515-.851.5-.908.49-.963.482-1.017.475-1.068.472-1.117.471-1.165.474-1.208.478-1.25.486-1.288.496-1.322.507-1.354.522-1.381.539-1.404.557-1.424.577-1.438.6-1.45.623-1.454.648-1.457.675-1.453.703-1.445.73-1.433.76-1.416.79-1.393.818-1.367.85-1.336.879-1.3.909-1.259.938-1.214.967-1.166.995-1.113 1.022-1.056 1.047-.995 1.072-.931 1.096-.864 1.116-.793 1.137-.72 1.155-.643 1.17-.566 1.185-.485 1.197-.404 1.207-.32 1.214-.235 1.219-.15 1.222-.063 1.223.022 1.22.109 1.217.194 1.21.28 1.202.364 1.191.446 1.178.527 1.162.607 1.146.684 1.126.758 1.106.83 1.084.9 1.06.965 1.033 1.027 1.008 1.086.98 1.141.953 1.192.923 1.238.893 1.281.864 1.32.833 1.352.804 1.381.773 1.406.745 1.425.716 1.44.688 1.45.66 1.456.636 1.456.61 1.453.588 1.444.567 1.43.547 1.415.53 1.392.514 1.367.5 1.338.49 1.305.482 1.269.476 1.228.472 1.186.471 1.14.474 1.092.478 1.042.485.989.495.934.508.879.524.821.54.764.563.704.585.646.61.586.638.528.668.469.699.411.733.355.769.3.805.245.844.194.884.144.923.096.965.051 1.007.009 1.048-.031 1.091-.067 1.133-.101 1.174-.13 1.215-.158 1.255-.18 1.295-.199 1.332-.214 1.368-.226 1.403-.234 1.434-.238 1.466-.238 1.492-.235 1.518-.227 1.54-.215 1.56-.2 1.577-.183 1.588-.16 1.599-.135 1.604-.106 1.607-.075 1.604-.04 1.6-.002 1.59.037 1.578.08 1.56.124 1.538.171 1.514.219 1.484.269 1.452.32 1.414.37 1.374.425 1.33.478 1.282.532 1.23.586 1.176.64 1.119.693 1.058.745.994.798.93.85.86.898.791.947.72.994.645 1.039.57 1.082.496 1.123.418 1.161.341 1.198.265 1.232.187 1.263.11 1.291.035 1.318-.04 1.34-.114 1.36-.186 1.377-.257 1.392-.325 1.403-.39 1.411-.455 1.417-.514 1.42-.572 1.42-.626 1.418-.676 1.412-.723 1.405-.767 1.396-.805 1.383-.84 1.368-.87 1.353-.895 1.335-.918 1.315-.934 1.294-.947 1.272-.954 1.248-.957 1.224-.955 1.2-.949 1.173-.937 1.148-.923 1.121-.902 1.096-.877 1.07-.85 1.044-.817 1.019-.78.995-.74.972-.696.95-.65.929-.6.91-.546.89-.491.875-.433.86-.374.847-.312.836-.249.827-.184.82-.12.815-.054.813" paint-order="fill stroke markers"/></svg>
